# 3ds Max Wavefront OBJ Exporter v0.97b - (c)2007 guruware
# File Created: 06.07.2015 17:55:17

mtllib Rock2.mtl

#
# object polySurface5
#

v  -2.1629 -0.4411 -4.8053
v  -1.6638 -1.0220 -3.6768
v  -3.2004 0.1941 -2.9073
v  -2.0905 -0.8991 -2.1955
v  -2.2395 0.7356 -4.9133
v  -3.1054 1.2112 -3.1884
v  -4.0089 1.0426 -1.5456
v  -3.8678 1.9856 -1.7182
v  -3.5024 0.4406 -0.8363
v  1.4398 0.9018 -3.3385
v  1.0409 1.1277 -3.8583
v  0.3096 2.3922 -3.4663
v  0.2028 1.9603 -4.2784
v  -0.4115 2.8460 -3.0008
v  1.1623 0.2099 -2.9434
v  -2.4228 -0.9192 -0.5070
v  -0.2286 0.2224 -4.8462
v  -0.8938 1.4753 -5.0927
v  -0.0391 -0.9655 -3.3544
v  -1.9418 2.3860 -3.1787
v  -2.3412 2.3462 -1.3205
v  -0.9154 3.0898 -1.9353
v  -1.4001 3.0308 -0.8651
v  -3.5742 1.5988 -0.8645
v  -2.2046 2.1404 -0.7025
v  -1.6269 2.2758 -0.0056
v  -3.7964 1.4229 -0.3941
v  -4.0877 -0.2325 0.9868
v  -4.3568 0.7181 1.0467
v  -3.1862 -1.0890 0.8372
v  -2.4256 1.9987 0.9120
v  -3.4371 1.1240 2.2958
v  -2.0858 1.3458 3.0820
v  -0.8149 2.7136 1.4177
v  -3.1535 -0.1023 2.3652
v  -2.1817 -1.0778 1.4553
v  -2.1936 0.5752 2.9560
v  -1.7875 -0.0001 2.7256
v  3.8971 -0.5484 -1.6454
v  4.2494 0.4249 -1.5616
v  3.5216 -0.3103 -0.0833
v  3.8429 0.3312 -0.0435
v  4.0367 0.7213 -2.9485
v  3.3950 -0.0817 -3.0073
v  2.5586 -0.9630 -2.5941
v  3.3099 -1.1429 -1.4429
v  1.7691 0.8045 -3.3306
v  2.1700 1.8194 -2.8101
v  3.2861 1.5213 -1.2887
v  2.5693 2.5495 -0.3357
v  3.2329 1.2047 0.1452
v  2.2625 1.7776 0.5164
v  3.3523 1.4793 -2.1721
v  -0.0939 3.3705 -2.9121
v  -0.4775 3.9502 -0.7139
v  0.4221 4.2090 -2.2361
v  1.5030 2.6715 -2.8178
v  1.6835 3.7912 -2.1534
v  2.5110 2.9688 -1.4780
v  0.5076 3.3357 1.7689
v  1.2447 3.7953 -0.1332
v  -0.6000 3.4050 0.8976
v  2.4373 3.0613 0.2879
v  1.4479 0.9493 3.3920
v  1.6535 1.4733 3.3310
v  0.6385 1.2968 2.9309
v  0.8514 1.8663 2.8127
v  -0.4990 1.7534 2.0677
v  2.6775 1.7545 2.7814
v  1.6350 2.4263 1.6376
v  2.7359 1.6749 1.8373
v  2.4456 2.5527 0.7881
v  0.5372 2.3779 1.9032
v  2.8950 1.0696 1.5941
v  2.8308 0.9242 2.8292
v  -0.4992 -1.2334 2.5404
v  1.0323 -1.3420 3.6700
v  -0.6995 -0.1843 3.8452
v  1.1088 -0.8148 4.4020
v  1.0533 0.6948 4.2251
v  -0.1456 1.1055 3.7348
v  -1.6060 -0.8493 1.6271
v  3.1466 -1.1810 -0.1448
v  3.4371 -1.2354 0.8449
v  3.8102 -0.6570 0.8612
v  2.4660 -1.3708 2.4095
v  3.2252 -0.6211 3.0440
v  4.0201 0.6719 1.4437
v  3.1117 0.6336 3.2949
v  -1.4249 1.1769 2.8693
v  1.1945 -0.8876 -2.3073
v  1.6580 3.2892 1.1792
# 92 vertices

vn -0.4014 -0.5763 -0.7118
vn -0.2723 -0.8820 -0.3846
vn -0.8514 -0.4470 -0.2743
vn -0.6955 -0.7116 -0.0994
vn -0.5476 0.1861 -0.8158
vn -0.7977 0.2821 -0.5329
vn -0.9833 -0.1787 0.0352
vn -0.7794 0.6256 -0.0351
vn -0.8679 -0.4672 -0.1685
vn 0.3768 -0.1035 -0.9205
vn 0.7855 0.0952 -0.6115
vn 0.3616 0.6324 -0.6851
vn 0.4190 0.6066 -0.6756
vn -0.3466 0.6997 -0.6247
vn 0.3179 -0.5107 -0.7988
vn -0.7084 -0.6364 -0.3052
vn 0.4156 -0.3598 -0.8354
vn 0.0235 0.4324 -0.9014
vn 0.4881 -0.6129 -0.6214
vn -0.3958 0.8224 -0.4086
vn -0.4437 0.8824 0.1564
vn -0.5545 0.7895 -0.2632
vn -0.6646 0.7394 0.1076
vn -0.7506 0.5999 0.2768
vn -0.4940 0.8296 0.2603
vn -0.5572 0.8131 0.1683
vn -0.8452 0.5058 -0.1728
vn -0.8553 -0.5139 0.0654
vn -0.9655 0.2156 0.1461
vn -0.6212 -0.7817 0.0549
vn -0.4337 0.8896 0.1435
vn -0.6607 0.4487 0.6017
vn -0.1404 0.4092 0.9016
vn -0.4701 0.6832 0.5588
vn -0.4939 -0.4722 0.7301
vn -0.1366 -0.7885 0.5997
vn -0.1384 -0.2292 0.9635
vn -0.3702 -0.5009 0.7824
vn 0.8259 -0.5496 -0.1262
vn 0.9947 0.1014 0.0174
vn 0.8921 -0.4432 -0.0883
vn 0.9964 0.0835 0.0115
vn 0.7814 0.1585 -0.6036
vn 0.4269 -0.4484 -0.7853
vn 0.1668 -0.6013 -0.7814
vn 0.7335 -0.6717 -0.1043
vn 0.0358 -0.0239 -0.9991
vn 0.3819 0.4106 -0.8280
vn 0.8091 0.5814 0.0854
vn 0.9341 0.2940 0.2027
vn 0.7175 0.6720 0.1833
vn 0.9221 0.3535 0.1576
vn 0.6885 0.6921 -0.2167
vn -0.2941 0.6193 -0.7280
vn -0.4327 0.8972 0.0879
vn -0.0732 0.9099 -0.4083
vn 0.4454 0.4096 -0.7962
vn 0.5499 0.7171 -0.4283
vn 0.7821 0.6004 -0.1667
vn 0.0025 0.6723 0.7403
vn 0.2716 0.9465 0.1740
vn -0.5088 0.7824 0.3592
vn 0.8346 0.5076 0.2141
vn 0.1123 0.7104 0.6948
vn 0.0633 0.4211 0.9048
vn -0.1577 0.7176 0.6784
vn -0.2351 0.6712 0.7030
vn -0.0496 0.6871 0.7249
vn 0.6504 0.5858 0.4836
vn 0.3902 0.6827 0.6177
vn 0.8719 0.4895 -0.0133
vn 0.9244 0.3219 0.2048
vn 0.0127 0.5029 0.8643
vn 0.6916 0.7186 0.0728
vn 0.6424 0.6503 0.4055
vn -0.5274 -0.7034 0.4766
vn -0.0219 -0.8199 0.5720
vn -0.5472 -0.2463 0.7999
vn 0.0580 -0.4213 0.9051
vn 0.1038 0.5268 0.8436
vn -0.2025 0.6763 0.7082
vn -0.1870 -0.7919 0.5813
vn 0.9174 -0.3892 -0.0832
vn 0.8595 -0.5074 0.0622
vn 0.9046 -0.4246 -0.0392
vn 0.5267 -0.7735 0.3525
vn 0.7214 -0.4461 0.5297
vn 0.8866 0.4327 0.1636
vn 0.6256 0.4629 0.6279
vn -0.0265 0.4212 0.9066
vn 0.1797 -0.4894 -0.8533
vn 0.5129 0.6773 0.5274
# 92 vertex normals

vt 0.4549 0.4300 0.0000
vt 0.4379 0.4257 0.0000
vt 0.4679 0.4052 0.0000
vt 0.4429 0.3919 0.0000
vt 0.4664 0.4322 0.0000
vt 0.4792 0.4136 0.0000
vt 0.4909 0.3896 0.0000
vt 0.4983 0.3979 0.0000
vt 0.4848 0.3734 0.0000
vt 0.4777 0.4974 0.0000
vt 0.4746 0.4818 0.0000
vt 0.4951 0.4616 0.0000
vt 0.4800 0.4617 0.0000
vt 0.4988 0.4507 0.0000
vt 0.4546 0.4942 0.0000
vt 0.4548 0.3602 0.0000
vt 0.4593 0.4539 0.0000
vt 0.4717 0.4469 0.0000
vt 0.4313 0.4623 0.0000
vt 0.4918 0.4301 0.0000
vt 0.5123 0.4133 0.0000
vt 0.5118 0.4388 0.0000
vt 0.5237 0.4275 0.0000
vt 0.5099 0.3863 0.0000
vt 0.5214 0.4103 0.0000
vt 0.5342 0.4159 0.0000
vt 0.5131 0.3608 0.0000
vt 0.5191 0.3807 0.0000
vt 0.5464 0.3586 0.0000
vt 0.5434 0.3706 0.0000
vt 0.5513 0.3391 0.0000
vt 0.5228 0.3294 0.0000
vt 0.5453 0.4009 0.0000
vt 0.5619 0.3801 0.0000
vt 0.5819 0.3933 0.0000
vt 0.5584 0.4262 0.0000
vt 0.5697 0.3655 0.0000
vt 0.5792 0.3376 0.0000
vt 0.5849 0.3810 0.0000
vt 0.5953 0.3707 0.0000
vt 0.5321 0.5484 0.0000
vt 0.5375 0.5319 0.0000
vt 0.5676 0.5499 0.0000
vt 0.5716 0.5316 0.0000
vt 0.5194 0.5256 0.0000
vt 0.5093 0.5330 0.0000
vt 0.4959 0.5517 0.0000
vt 0.5297 0.5646 0.0000
vt 0.4833 0.5038 0.0000
vt 0.4687 0.5174 0.0000
vt 0.5052 0.4955 0.0000
vt 0.5388 0.5080 0.0000
vt 0.5486 0.4862 0.0000
vt 0.5660 0.5077 0.0000
vt 0.5652 0.4881 0.0000
vt 0.5245 0.5101 0.0000
vt 0.5051 0.4550 0.0000
vt 0.5296 0.4434 0.0000
vt 0.5175 0.4578 0.0000
vt 0.5062 0.4788 0.0000
vt 0.5210 0.4713 0.0000
vt 0.5312 0.4842 0.0000
vt 0.5610 0.4460 0.0000
vt 0.5418 0.4609 0.0000
vt 0.5487 0.4351 0.0000
vt 0.5532 0.4759 0.0000
vt 0.6056 0.4532 0.0000
vt 0.5986 0.4564 0.0000
vt 0.5958 0.4409 0.0000
vt 0.5883 0.4464 0.0000
vt 0.5773 0.4236 0.0000
vt 0.5928 0.4710 0.0000
vt 0.5720 0.4617 0.0000
vt 0.5829 0.4789 0.0000
vt 0.5627 0.4765 0.0000
vt 0.5743 0.4442 0.0000
vt 0.5857 0.4894 0.0000
vt 0.6017 0.4767 0.0000
vt 0.6538 0.4041 0.0000
vt 0.6538 0.4487 0.0000
vt 0.6255 0.4170 0.0000
vt 0.6389 0.4472 0.0000
vt 0.6166 0.4452 0.0000
vt 0.6065 0.4277 0.0000
vt 0.6430 0.3735 0.0000
vt 0.6175 0.3886 0.0000
vt 0.5613 0.5725 0.0000
vt 0.6210 0.5351 0.0000
vt 0.6077 0.5297 0.0000
vt 0.6489 0.4960 0.0000
vt 0.6275 0.4879 0.0000
vt 0.5934 0.5066 0.0000
vt 0.6112 0.4782 0.0000
vt 0.5908 0.4021 0.0000
vt 0.5909 0.3407 0.0000
vt 0.5879 0.5439 0.0000
vt 0.6078 0.5582 0.0000
vt 0.4269 0.4973 0.0000
vt 0.4647 0.5470 0.0000
vt 0.5591 0.4612 0.0000
# 100 texture coords

g polySurface5
usemtl Material__26
s 1
f 1/1/1 2/2/2 3/3/3 
f 3/3/3 2/2/2 4/4/4 
f 1/1/1 3/3/3 5/5/5 
f 5/5/5 3/3/3 6/6/6 
f 3/3/3 7/7/7 6/6/6 
f 6/6/6 7/7/7 8/8/8 
f 9/9/9 7/7/7 3/3/3 
f 9/9/9 3/3/3 4/4/4 
f 10/10/10 11/11/11 12/12/12 
f 12/12/12 11/11/11 13/13/13 
f 12/12/12 13/13/13 14/14/14 
f 10/10/10 15/15/15 11/11/11 
f 9/9/9 4/4/4 16/16/16 
f 1/1/1 5/5/5 17/17/17 
f 17/17/17 5/5/5 18/18/18 
f 19/19/19 2/2/2 17/17/17 
f 17/17/17 2/2/2 1/1/1 
f 19/19/19 17/17/17 15/15/15 
f 15/15/15 17/17/17 11/11/11 
f 18/18/18 13/13/13 17/17/17 
f 17/17/17 13/13/13 11/11/11 
f 8/8/8 20/20/20 6/6/6 
f 18/18/18 5/5/5 20/20/20 
f 20/20/20 5/5/5 6/6/6 
f 18/18/18 20/20/20 13/13/13 
f 13/13/13 20/20/20 14/14/14 
f 20/20/20 21/21/21 22/22/22 
f 22/22/22 21/21/21 23/23/23 
f 24/24/24 7/7/7 9/9/9 
f 25/25/25 21/21/21 24/24/24 
f 24/24/24 21/21/21 8/8/8 
f 26/26/26 23/23/23 25/25/25 
f 25/25/25 23/23/23 21/21/21 
f 9/27/9 27/28/27 24/24/24 
f 28/29/28 29/30/29 9/27/9 
f 9/27/9 29/30/29 27/28/27 
f 28/29/28 9/27/9 30/31/30 
f 30/31/30 9/27/9 16/32/16 
f 27/28/27 29/30/29 31/33/31 
f 31/33/31 29/30/29 32/34/32 
f 25/25/25 24/24/24 27/28/27 
f 27/28/27 31/33/31 25/25/25 
f 25/25/25 31/33/31 26/26/26 
f 32/34/32 33/35/33 31/33/31 
f 31/33/31 33/35/33 34/36/34 
f 28/29/28 30/31/30 35/37/35 
f 35/37/35 30/31/30 36/38/36 
f 32/34/32 29/30/29 35/37/35 
f 35/37/35 29/30/29 28/29/28 
f 35/37/35 37/39/37 32/34/32 
f 32/34/32 37/39/37 33/35/33 
f 36/38/36 38/40/38 35/37/35 
f 35/37/35 38/40/38 37/39/37 
f 39/41/39 40/42/40 41/43/41 
f 41/43/41 40/42/40 42/44/42 
f 43/45/43 40/42/40 44/46/44 
f 44/46/44 40/42/40 39/41/39 
f 44/46/44 39/41/39 45/47/45 
f 45/47/45 39/41/39 46/48/46 
f 44/46/44 45/47/45 47/49/47 
f 47/49/47 45/47/45 15/50/15 
f 43/45/43 47/49/47 48/51/48 
f 49/52/49 50/53/50 51/54/51 
f 51/54/51 50/53/50 52/55/52 
f 53/56/53 43/45/43 48/51/48 
f 14/14/14 22/22/22 54/57/54 
f 23/23/23 26/26/26 55/58/55 
f 54/57/54 56/59/56 57/60/57 
f 57/60/57 56/59/56 58/61/58 
f 14/14/14 54/57/54 12/12/12 
f 12/12/12 54/57/54 57/60/57 
f 58/61/58 59/62/59 57/60/57 
f 57/60/57 59/62/59 53/56/53 
f 60/63/60 61/64/61 62/65/62 
f 62/65/62 61/64/61 55/58/55 
f 55/58/55 61/64/61 56/59/56 
f 56/59/56 61/64/61 58/61/58 
f 58/61/58 61/64/61 59/62/59 
f 59/62/59 61/64/61 63/66/63 
f 34/36/34 60/63/60 62/65/62 
f 64/67/64 65/68/65 66/69/66 
f 66/69/66 65/68/65 67/70/67 
f 68/71/68 66/69/66 67/70/67 
f 65/68/65 69/72/69 67/70/67 
f 67/70/67 69/72/69 70/73/70 
f 69/72/69 71/74/71 70/73/70 
f 70/73/70 71/74/71 72/75/72 
f 73/76/73 67/70/67 70/73/70 
f 72/75/72 71/74/71 52/55/52 
f 52/55/52 71/74/71 74/77/74 
f 74/77/74 71/74/71 75/78/75 
f 75/78/75 71/74/71 69/72/69 
f 64/67/64 75/78/75 65/68/65 
f 65/68/65 75/78/75 69/72/69 
f 76/79/76 77/80/77 78/81/78 
f 78/81/78 77/80/77 79/82/79 
f 79/82/79 80/83/80 78/81/78 
f 78/81/78 80/83/80 81/84/81 
f 82/85/82 76/79/76 38/86/38 
f 38/86/38 76/79/76 78/81/78 
f 39/41/39 41/43/41 46/48/46 
f 46/48/46 41/43/41 83/87/83 
f 84/88/84 85/89/85 86/90/86 
f 86/90/86 85/89/85 87/91/87 
f 85/89/85 88/92/88 87/91/87 
f 87/91/87 88/92/88 89/93/89 
f 87/91/87 89/93/89 79/82/79 
f 79/82/79 89/93/89 80/83/80 
f 79/82/79 77/80/77 87/91/87 
f 87/91/87 77/80/77 86/90/86 
f 26/26/26 31/33/31 34/36/34 
f 50/53/50 49/52/49 53/56/53 
f 48/51/48 47/49/47 10/10/10 
f 10/10/10 47/49/47 15/50/15 
f 72/75/72 52/55/52 63/66/63 
f 63/66/63 50/53/50 59/62/59 
f 10/10/10 57/60/57 48/51/48 
f 48/51/48 57/60/57 53/56/53 
f 23/23/23 55/58/55 22/22/22 
f 68/71/68 73/76/73 60/63/60 
f 38/40/38 90/94/90 37/39/37 
f 37/39/37 90/94/90 33/35/33 
f 90/94/90 68/71/68 33/35/33 
f 33/35/33 68/71/68 34/36/34 
f 82/95/82 38/40/38 36/38/36 
f 51/54/51 42/44/42 40/42/40 
f 51/54/51 40/42/40 49/52/49 
f 90/94/90 78/81/78 81/84/81 
f 38/86/38 78/81/78 90/94/90 
f 81/84/81 80/83/80 66/69/66 
f 66/69/66 80/83/80 64/67/64 
f 80/83/80 89/93/89 64/67/64 
f 64/67/64 89/93/89 75/78/75 
f 52/55/52 74/77/74 51/54/51 
f 51/54/51 74/77/74 88/92/88 
f 75/78/75 89/93/89 74/77/74 
f 74/77/74 89/93/89 88/92/88 
f 90/94/90 81/84/81 68/71/68 
f 68/71/68 81/84/81 66/69/66 
f 51/54/51 88/92/88 42/44/42 
f 88/92/88 85/89/85 42/44/42 
f 42/44/42 85/89/85 41/96/41 
f 24/24/24 8/8/8 7/7/7 
f 72/75/72 63/66/63 70/73/70 
f 14/14/14 20/20/20 22/22/22 
f 55/58/55 26/26/26 62/65/62 
f 62/65/62 26/26/26 34/36/34 
f 83/97/83 41/96/41 84/88/84 
f 84/88/84 41/96/41 85/89/85 
f 19/19/19 15/15/15 91/98/91 
f 15/50/15 45/47/45 91/99/91 
f 12/12/12 57/60/57 10/10/10 
f 60/63/60 70/73/70 92/100/92 
f 70/73/70 63/66/63 92/100/92 
f 63/66/63 61/64/61 92/100/92 
f 61/64/61 60/63/60 92/100/92 
f 21/21/21 20/20/20 8/8/8 
f 52/55/52 50/53/50 63/66/63 
f 59/62/59 50/53/50 53/56/53 
f 68/71/68 60/63/60 34/36/34 
f 49/52/49 40/42/40 53/56/53 
f 53/56/53 40/42/40 43/45/43 
f 44/46/44 47/49/47 43/45/43 
f 73/76/73 70/73/70 60/63/60 
f 68/71/68 67/70/67 73/76/73 
f 55/58/55 56/59/56 22/22/22 
f 22/22/22 56/59/56 54/57/54 
# 0 polygons - 167 triangles

